<?xml version="1.0" standalone="no"?>
<!DOCTYPE svg PUBLIC "-//W3C//DTD SVG 1.1//EN" "http://www.w3.org/Graphics/SVG/1.1/DTD/svg11.dtd" >
<svg xmlns="http://www.w3.org/2000/svg">
<metadata>Generated by IcoMoon</metadata>
<defs>
<font id="icomoon" horiz-adv-x="1024">
<font-face units-per-em="1024" ascent="921.9002932551319" descent="-102.09970674486803" />
<missing-glyph horiz-adv-x="1024" />
<glyph unicode="&#x20;" horiz-adv-x="512.5004887585533" d="" />
<glyph unicode="&#xe900;" glyph-name="back" d="M245.060 379.451l460.488-460.335c20.206-20.155 52.943-20.155 73.2 0 20.206 20.155 20.206 52.892 0 73.047l-423.963 423.81 423.912 423.81c20.206 20.155 20.206 52.892 0 73.098-20.206 20.155-52.994 20.155-73.2 0l-460.488-460.331c-19.896-19.947-19.896-53.198 0.051-73.098z" />
<glyph unicode="&#xe901;" glyph-name="badge" d="M881.386 570.744c-7.050 15.446-9.498 32.496-7.078 49.304 8.258 57.344-17.896 114.642-66.628 145.974-14.282 9.184-25.558 22.202-32.61 37.65-24.056 52.706-77.036 86.768-134.97 86.78-16.98 0.004-33.506 4.86-47.788 14.042-48.732 31.332-111.716 31.344-160.462 0.032-14.282-9.174-30.8-14.022-47.774-14.022-0.014 0-0.032 0-0.048 0-57.924 0-110.904-34.040-134.976-86.724-7.058-15.444-18.338-28.458-32.626-37.636-48.746-31.312-74.922-88.6-66.688-145.948 2.414-16.806-0.042-33.854-7.098-49.298-24.078-52.694-15.128-115.040 22.802-158.834 11.116-12.834 18.268-28.504 20.682-45.312 8.232-57.348 49.468-104.956 105.054-121.292 3.712-1.090 7.316-2.446 10.822-3.996v-307.466c0-10.65 5.646-20.502 14.836-25.886s20.544-5.492 29.834-0.286l165.33 92.668 165.33-92.664c4.56-2.556 9.614-3.83 14.668-3.83 5.244 0 10.486 1.374 15.166 4.116 9.19 5.384 14.836 15.236 14.836 25.886v307.424c3.472 1.526 7.038 2.866 10.712 3.944 55.592 16.312 96.848 63.904 105.104 121.246 2.422 16.808 9.58 32.474 20.7 45.304 37.95 43.776 46.926 106.118 22.87 158.824zM526.668 61.058c-9.114 5.106-20.224 5.106-29.338 0l-135.328-75.848v207.672c36.138-24.43 82.020-32.212 125.022-19.596 16.292 4.78 33.516 4.778 49.806-0.010 13.726-4.034 27.744-5.99 41.65-5.99 29.708 0.002 58.874 8.962 83.512 25.646v-207.722zM813.178 451.224c-18.672-21.538-30.688-47.838-34.752-76.054-4.918-34.156-29.494-62.506-62.608-72.222-27.354-8.026-51.682-23.654-70.352-45.192-22.606-26.076-58.604-36.638-91.716-26.91-13.684 4.022-27.76 6.032-41.838 6.032-14.056 0-28.114-2.004-41.78-6.014-33.116-9.716-69.112 0.864-91.704 26.948-18.662 21.548-42.984 37.186-70.334 45.222-33.11 9.73-57.672 38.090-62.576 72.248-4.052 28.218-16.058 54.522-34.72 76.068-22.594 26.086-27.926 63.222-13.582 94.612 11.846 25.93 15.966 54.548 11.916 82.764-4.904 34.16 10.688 68.284 39.724 86.936 23.986 15.406 42.924 37.256 54.772 63.182 14.34 31.384 45.896 51.658 80.4 51.658h0.050c28.494 0 56.23 8.14 80.204 23.542 29.036 18.65 66.554 18.644 95.58-0.020 23.978-15.416 51.72-23.568 80.226-23.574 34.51-0.006 66.066-20.298 80.396-51.69 11.836-25.932 30.766-47.788 54.744-63.206 29.028-18.664 44.606-52.794 39.688-86.952-4.062-28.216 0.046-56.836 11.882-82.77 14.33-31.398 8.984-68.532-13.62-94.608zM512 764.824c-119.746 0-217.164-97.42-217.164-217.164s97.418-217.166 217.164-217.166 217.164 97.42 217.164 217.164-97.42 217.166-217.164 217.166zM512 390.498c-86.658 0-157.16 70.502-157.16 157.16s70.502 157.16 157.16 157.16 157.16-70.502 157.16-157.16-70.502-157.16-157.16-157.16z" />
<glyph unicode="&#xe902;" glyph-name="bottles" d="M464.937 339.63c-0.007 21.237-9.612 40.228-24.714 52.873l-0.108 0.088c15.241 13.243 24.822 32.657 24.822 54.309 0 0.001 0 0.003 0 0.004v0 201.871c-0.075 42.058-22.748 78.803-56.522 98.749l-0.535 0.292c-24.198 14.285-40.189 40.208-40.243 69.87v0.827h0.963c9.309 0 16.855 7.546 16.855 16.855v0 75.776c0 9.309-7.546 16.855-16.855 16.855v0h-200.581c-9.309 0-16.855-7.546-16.855-16.855v0-75.776c0-9.309 7.546-16.855 16.855-16.855h0.963v-0.799c-0.054-29.67-16.045-55.593-39.866-69.672l-0.377-0.206c-34.298-20.246-56.962-56.988-57.037-99.030v-201.841c0-0.007 0-0.015 0-0.023 0-21.646 9.581-41.054 24.734-54.215l0.088-0.075c-15.207-12.734-24.812-31.725-24.822-52.96v-377.633c0.047-32.047 26.014-58.014 58.056-58.061h277.098c32.047 0.047 58.014 26.014 58.061 58.056v0.004zM431.227 493.926h-325.796v118.374h325.796zM143.667 408.73c-21.108 0.023-38.213 17.128-38.236 38.234v13.253h325.796v-13.271c-0.023-21.108-17.128-38.213-38.234-38.236h-0.002c-9.309 0-16.855-7.546-16.855-16.855s7.546-16.855 16.855-16.855h2.888c19.529-0.023 35.355-15.842 35.389-35.366v-106.499c-8.907 1.635-19.157 2.57-29.626 2.57-35.013 0-67.583-10.46-94.756-28.425l0.642 0.399c-40.12-25.149-169.226-4.813-202.097-4.096v136.049c0.035 19.52 15.849 35.334 35.366 35.369h2.993c9.309 0 16.855 7.546 16.855 16.855s-7.546 16.855-16.855 16.855v0zM325.427 179.046c21.512 14.344 47.956 22.89 76.397 22.89 8.509 0 16.839-0.765 24.925-2.23l-0.847 0.127c-8.657-18.183-22.593-32.68-39.811-41.807l-0.493-0.239c-15.408-6.487-33.32-10.256-52.111-10.256s-36.703 3.769-53.019 10.592l0.908-0.337c16.823 5.788 31.382 12.976 44.827 21.731l-0.774-0.473zM285.102 852.224v42.066h16.855v-42.066zM234.557 852.224v42.066h16.855v-42.066zM351.724 852.224h-16.056v42.066h16.056zM184.812 894.31h16.056v-42.086h-16.056zM145.613 718.674c34.301 20.243 56.966 56.987 57.037 99.031v0.829h131.195v-0.799c0.070-42.054 22.736-78.799 56.503-98.749l0.534-0.292c24.209-14.277 40.209-40.203 40.264-69.87v-2.834h-325.714v2.765c0.062 29.662 16.051 55.576 39.866 69.651l0.377 0.206zM406.856-62.29h-277.053c-13.455 0.012-24.36 10.916-24.371 24.37v207.73c48.303-1.942 93.462-13.432 134.285-32.622l-2.128 0.899c29.753-14.189 64.521-22.997 101.209-24.237l0.433-0.012c0.631-0.011 1.375-0.017 2.121-0.017 21.672 0 42.147 5.127 60.278 14.234l-0.774-0.352c11.697 6.007 21.719 13.395 30.385 22.131l0.008 0.008v-187.781c0-13.471-10.921-24.392-24.392-24.392v0zM944.046 613.018c-0.028 0.632-0.094 1.224-0.196 1.803l0.012-0.083c0.017 0.111 0.026 0.239 0.026 0.369s-0.010 0.258-0.028 0.383l0.002-0.014c-0.232 1.264-0.602 2.39-1.101 3.442l0.036-0.084c-0.102 0.225-0.225 0.43-0.348 0.655-0.512 0.973-1.084 1.812-1.737 2.58l0.016-0.020c-0.102 0.123-0.164 0.287-0.266 0.389l-108.155 118.272v71.68c18.148 2.974 31.836 18.518 31.887 37.268v40.454c-0.011 20.877-16.898 37.807-37.757 37.888h-194.138c-20.92-0.012-37.876-16.968-37.888-37.887v-40.531c0.054-18.762 13.751-34.309 31.689-37.244l0.219-0.030v-71.68l-108.052-118.252c-2.234-2.492-3.611-5.792-3.645-9.414v-217.914c0.040-2.604 0.75-5.034 1.963-7.137l-0.038 0.071 36.147-61.44c7.172-11.928 11.414-26.324 11.414-41.712 0-21.199-8.052-40.517-21.264-55.062l0.060 0.067c-17.546-19.412-28.283-45.27-28.283-73.636 0-0.032 0-0.065 0-0.097v0.005-194.97c0.012-29.707 24.061-53.792 53.753-53.862h321.85c29.711 0.035 53.786 24.111 53.821 53.818v194.973c0 0.023 0 0.050 0 0.077 0 28.371-10.737 54.233-28.368 73.747l0.085-0.096c-13.152 14.478-21.204 33.796-21.204 54.995 0 15.387 4.242 29.783 11.621 42.083l-0.207-0.371 36.147 61.44c1.175 2.031 1.885 4.461 1.925 7.054v0.012zM542.536 599.071h373.596v-190.054h-373.596zM654.254 811.715h150.139v-62.464h-150.139zM622.346 849.603v40.509c0 5.508 4.465 9.974 9.974 9.974v0h194.109c5.508 0 9.974-4.465 9.974-9.974v0-40.53c0-5.508-4.465-9.974-9.974-9.974v0h-194.13c-5.508 0-9.974 4.465-9.974 9.974v0zM646.451 721.357h165.724l86.221-94.413h-338.207zM542.536 50.268h373.596v-45.384h-373.596zM916.132 78.080h-373.596v45.466h373.596zM890.225-64.911h-321.843c-14.299 0.023-25.884 11.608-25.907 25.905v15.874h373.658v-15.872c-0.023-14.299-11.608-25.884-25.905-25.907h-0.002zM881.93 340.593c-9.578-15.961-15.243-35.219-15.243-55.799 0-28.36 10.757-54.208 28.412-73.686l-0.083 0.092c13.099-14.496 21.115-33.803 21.115-54.983 0-0.016 0-0.033 0-0.049v0.003-4.608h-373.596v4.608c0 0.014 0 0.030 0 0.047 0 21.18 8.016 40.487 21.179 55.055l-0.064-0.072c17.607 19.394 28.386 45.266 28.386 73.655 0 20.606-5.678 39.885-15.556 56.358l0.277-0.498-23.777 40.468h352.727z" />
<glyph unicode="&#xe903;" glyph-name="box" d="M980.5 649.247c-10.936 11.284-465.080 276.439-465.080 276.439-2.413 1.449-5.325 2.306-8.438 2.306s-6.024-0.857-8.513-2.348l0.075 0.042-459.878-292.352c-4.795-2.916-7.949-8.113-7.949-14.046 0-0.102 0.001-0.204 0.003-0.306v0.015-426.742c-0.002-0.086-0.003-0.188-0.003-0.29 0-5.933 3.154-11.13 7.876-14.005l0.072-0.041 459.858-271.872h0.983c0.006 0 0.014 0 0.021 0 0.543 0 0.983-0.44 0.983-0.983 0-0.014 0-0.029-0.001-0.043v0.002c1.774-0.65 3.823-1.026 5.96-1.026s4.185 0.376 6.084 1.066l-0.124-0.039c0.983 0 0.983 0 2.048 1.024 0.983 0 0.983 0 2.048 1.024l459.756 298.516c4.795 2.916 7.949 8.113 7.949 14.046 0 0.102-0.001 0.204-0.003 0.306v-0.015 418.55c0.007 0.181 0.012 0.394 0.012 0.607 0 3.888-1.415 7.446-3.757 10.187l0.018-0.022zM507.474 891.832l427.090-253.358-198.656-128.225-437.924 249.262zM491.581-50.944l-428.093 253.46v382.607l428.032-253.379zM507.474 361.421l-433.050 256.532 191.693 122.061 438.006-249.262zM951.439 229.1l-428.175-278.938v382.628l428.032 277.996z" />
<glyph unicode="&#xe904;" glyph-name="customer" d="M512 514c95.944 0 174 78.056 174 174s-78.056 174-174 174-174-78.056-174-174 78.056-174 174-174zM512 802c62.86 0 114-51.14 114-114s-51.14-114-114-114-114 51.14-114 114 51.14 114 114 114zM864 514c60.654 0 110 49.346 110 110s-49.346 110-110 110-110-49.346-110-110 49.346-110 110-110zM864 674c27.57 0 50-22.43 50-50s-22.43-50-50-50-50 22.43-50 50 22.43 50 50 50zM888.2 446h-46.4c-54.678 0-101.878-32.304-123.386-78.704-44.282 48.34-107.888 78.704-178.456 78.704h-55.914c-70.568 0-134.174-30.364-178.456-78.704-21.51 46.4-68.71 78.704-123.388 78.704h-46.4c-74.88 0-135.8-60.552-135.8-134.98v-218.42c0-32.312 26.388-58.6 58.824-58.6h183.454c3.076-35.8 33.18-64 69.766-64h399.914c36.584 0 66.688 28.2 69.766 64h181.358c33.592 0 60.92 27.22 60.92 60.68v216.34c-0.002 74.428-60.922 134.98-135.802 134.98zM60 311.020c0 41.344 34.004 74.98 75.8 74.98h46.4c41.796 0 75.8-33.636 75.8-74.98v-20.542c-20.174-52.528-16-84.008-16-196.478h-182zM722 40.042c0-5.538-4.504-10.042-10.042-10.042h-399.916c-5.538 0-10.042 4.506-10.042 10.042v163.914c0 100.38 81.664 182.044 182.042 182.044h55.914c100.38 0 182.044-81.664 182.044-182.042zM964 94.68c0-1.034 11.184-0.68-182-0.68 0 113.302 4.142 144.036-16 196.478v20.542c0 41.344 34.004 74.98 75.8 74.98h46.4c41.796 0 75.8-33.636 75.8-74.98zM160 514c60.654 0 110 49.346 110 110s-49.346 110-110 110-110-49.346-110-110 49.346-110 110-110zM160 674c27.57 0 50-22.43 50-50s-22.43-50-50-50-50 22.43-50 50 22.43 50 50 50z" />
<glyph unicode="&#xe905;" glyph-name="customer-ser" d="M880.204 154.69l-198.466 55.903v83.437c33.824 30.713 57.161 72.438 64.333 119.479l0.141 1.126c57.919 6.182 102.637 54.784 102.637 113.831 0 58.698-44.191 107.074-101.119 113.674l-0.532 0.050c-5.726 138.075-119.049 247.842-258.010 247.842s-252.284-109.767-257.993-247.325l-0.017-0.517c-57.276-6.941-101.222-55.26-101.222-113.844 0-63.309 51.322-114.631 114.631-114.631 0.519 0 1.038 0.003 1.556 0.010l-0.079-0.001h0.986c20.602-51.694 55.684-93.97 100.221-122.932l1.003-0.612v-79.417l-197.442-56.073c-87.194-21.164-150.931-98.558-150.931-190.839 0-2.195 0.036-4.383 0.108-6.561l-0.008 0.317c0-0.029 0-0.063 0-0.097 0-8.609 6.979-15.588 15.588-15.588 0.1 0 0.2 0.001 0.3 0.003h-0.015c0.085-0.002 0.185-0.003 0.285-0.003 8.609 0 15.588 6.979 15.588 15.588 0 0.034 0 0.068 0 0.103v-0.005c-0.113 2.267-0.177 4.922-0.177 7.593 0 77.358 53.862 142.136 126.129 158.877l1.1 0.215 201.444 56.889 142.886-184.263c3.147-3.621 7.76-5.898 12.904-5.898s9.757 2.276 12.887 5.877l0.018 0.021 142.905 184.339 200.457-56.889c72.366-17.62 125.248-81.876 125.248-158.483 0-2.885-0.075-5.752-0.223-8.6l0.017 0.398c0-8.771 7.11-15.881 15.881-15.881s15.881 7.11 15.881 15.881v0c0.057 1.762 0.089 3.833 0.089 5.913 0 91.755-62.715 168.863-147.618 190.794l-1.368 0.3zM748.222 610.617c39.218-7.49 68.458-41.513 68.458-82.366s-29.24-74.875-67.934-82.282l-0.524-0.084zM162.74 528.261c0.28 40.755 29.39 74.631 67.938 82.267l0.537 0.089v-105.889c0.32-21.36 2.832-41.959 7.32-61.808l-0.38 1.998c-42.247 4.96-74.8 40.256-75.415 83.28l-0.001 0.062zM655.948 314.51c-3.621-2.548-5.959-6.71-5.959-11.418 0-0.119 0.002-0.238 0.004-0.357v0.018-96.085l-133.973-174.459-133.973 172.563v68.57c8.704-4.004 19.877-8.325 31.315-12.059l2.42-0.684c3.845-25.66 25.734-45.113 52.166-45.113 0.501 0 1 0.007 1.497 0.021l-0.073-0.002h40.732c1.306-0.121 2.824-0.19 4.359-0.19 27.722 0 50.195 22.473 50.195 50.195s-22.473 50.195-50.195 50.195c-1.535 0-3.053-0.069-4.553-0.204l0.194 0.014h-40.732c-0.383 0.010-0.834 0.016-1.286 0.016-19.122 0-35.883-10.108-45.231-25.273l-0.132-0.229c-92.55 28.696-158.627 113.48-158.758 213.716v131.391c1.172 124.069 102.022 224.195 226.257 224.195s225.084-100.125 226.256-224.083l0.001-0.111v-199.111c-0.647-1.448-1.024-3.137-1.024-4.915 0-0.339 0.014-0.675 0.041-1.008l-0.003 0.044c0-65.631-58.558-115.636-59.544-115.636zM446.559 266.477v3.925c3.164 8.692 11.355 14.787 20.97 14.787 0.629 0 1.251-0.026 1.866-0.077l-0.081 0.005h40.789c0.51 0.044 1.104 0.069 1.704 0.069 10.824 0 19.754-8.112 21.041-18.588l0.010-0.103c-0.948-10.547-9.746-18.75-20.459-18.75-0.809 0-1.607 0.047-2.392 0.138l0.096-0.009h-40.732c-0.528-0.047-1.142-0.073-1.763-0.073-10.819 0-19.745 8.104-21.039 18.573l-0.010 0.103zM674.892 644.219c-1.634-0.1-3.545-0.157-5.469-0.157-36.75 0-68.647 20.779-84.582 51.23l-0.25 0.525c-2.33 5.224-7.087 8.996-12.799 9.905l-0.096 0.013c-0.554 0.070-1.194 0.11-1.844 0.11-5.432 0-10.215-2.779-13.005-6.992l-0.036-0.058c-73.425-106.193-243.124-79.379-244.11-79.379-0.693 0.109-1.493 0.171-2.307 0.171-4.090 0-7.814-1.572-10.599-4.144l0.011 0.010c-3.625-2.596-5.959-6.793-5.959-11.537 0-0.131 0.002-0.261 0.005-0.391v0.019-176.64c0-8.771 7.11-15.881 15.881-15.881s15.881 7.11 15.881 15.881v0 158.777c46.649-3.963 169.7-6.94 243.124 76.402 23.199-30.372 59.433-49.769 100.196-49.769 2.109 0 4.206 0.052 6.29 0.155l-0.293-0.012c8.771 0 15.881 7.11 15.881 15.881s-7.11 15.881-15.881 15.881v0z" />
<glyph unicode="&#xe906;" glyph-name="envelope" d="M0 782.933v-733.867h1024v733.867h-1024zM625.067 406.374l-92.945-93.389c-11.298-10.496-28.979-10.479-39.799-0.444l-93.406 93.833 0.819 0.802-337.493 341.623h899.738l-337.732-341.641 0.819-0.785zM350.276 406.903l-316.143-304.162v621.773l316.143-317.611zM374.34 382.72l94.259-94.703c12.1-11.281 27.631-16.947 43.23-16.947 15.753 0 31.573 5.786 44.049 17.408l93.798 94.242 311.245-299.52h-898.014l311.433 299.52zM673.741 406.886l316.126 317.645v-621.79l-316.126 304.145z" />
<glyph unicode="&#xe907;" glyph-name="equalizer" horiz-adv-x="1019" d="M198.4 420.75v492.629c-0.151 4.295-2.35 8.047-5.645 10.325l-0.044 0.029c-3.762 2.671-8.448 4.271-13.507 4.271-0.151 0-0.303-0.001-0.453-0.004h-78.626c-10.837 0-19.627-6.542-19.627-14.62v-492.487c-11.967-4.146-22.304-9.182-31.907-15.271l0.618 0.366c-3.874-2.089-6.462-6.118-6.462-10.751 0-3.881 1.816-7.338 4.644-9.567l0.026-0.020c4.118-3.225 9.372-5.171 15.081-5.171 4.465 0 8.651 1.191 12.26 3.271l-0.119-0.063c18.557 11.12 40.941 17.696 64.862 17.696 22.169 0 43.018-5.648 61.188-15.584l-0.666 0.334c23.039-9.902 38.88-32.402 38.88-58.6 0-11.834-3.232-22.913-8.861-32.403l0.161 0.294c-20.747-26.829-52.944-43.937-89.136-43.937-8.244 0-16.28 0.888-24.019 2.572l0.742-0.135c-45.881 7.538-78.564 37.86-78.564 72.875 0 8.078-8.789 14.62-19.627 14.62s-19.627-6.542-19.627-14.62c4.316-45.674 36.823-82.699 79.758-93.706l0.74-0.161v-314.311c0-8.078 8.789-14.62 19.627-14.62h78.535c10.837 0 19.627 6.542 19.627 14.62v272.1c0 8.078-8.789 14.62-19.627 14.62s-19.627-6.542-19.627-14.62v-257.451h-39.253v290.731c68.267-7.339 133.689 23.78 153.23 73.102s-12.004 102.002-74.581 123.676zM119.865 429.483v469.333h39.253v-469.333c-5.891 0.728-12.71 1.144-19.627 1.144s-13.735-0.415-20.434-1.223l0.807 0.079zM509.184 562.29c-6.969-0.046-13.785-0.468-20.492-1.248l0.865 0.082v337.607h39.253v-303.303c0-8.078 8.789-14.62 19.627-14.62s19.627 6.542 19.627 14.62v317.952c0 8.078-8.789 14.62-19.627 14.62h-78.507c-10.837 0-19.627-6.542-19.627-14.62v-360.96c-43.716-11.098-76.26-48.161-80.466-93.446l-0.032-0.421c4.238-45.706 36.782-82.769 79.761-93.708l0.737-0.159v-446.066c0-8.078 8.789-14.62 19.627-14.62h78.535c10.837 0 19.627 6.542 19.627 14.62v445.81c59.221 20.565 91.307 69.035 77.17 116.622s-70.741 81.266-136.078 81.237zM528.811-66.731h-39.253v422.457c5.892-0.734 12.71-1.153 19.627-1.153s13.735 0.419 20.432 1.233l-0.805-0.080zM509.184 383.829c-55.296 0-100.124 33.394-100.124 74.61s44.828 74.61 100.124 74.61 100.124-33.394 100.124-74.61-44.857-74.581-100.124-74.61zM1019.136 771.47c-4.316 45.674-36.823 82.699-79.758 93.706l-0.74 0.161v48.043c0 8.078-8.789 14.62-19.627 14.62h-78.649c-10.837 0-19.627-6.542-19.627-14.62v-47.9c-63.090-21.447-95.317-74.268-75.52-123.79s85.504-80.64 154.055-72.903v-735.516h-39.253v700.331c0 8.078-8.789 14.62-19.627 14.62s-19.627-6.542-19.627-14.62v-714.98c0-8.078 8.789-14.62 19.627-14.62h78.535c10.837 0 19.627 6.542 19.627 14.62v758.869c43.743 11.15 76.303 48.238 80.551 93.555l0.032 0.425zM860.132 898.731h39.253v-24.576c-5.891 0.734-12.71 1.153-19.627 1.153s-13.735-0.419-20.432-1.233l0.805 0.080zM879.758 696.775c-55.296 0-100.124 33.394-100.124 74.61s44.828 74.61 100.124 74.61 99.982-33.195 99.982-74.524-44.715-74.553-99.982-74.61z" />
<glyph unicode="&#xe908;" glyph-name="lid" horiz-adv-x="1025" d="M845.134 156.861c55.448 69.023 88.992 157.7 88.992 254.212 0 1.086-0.004 2.171-0.013 3.255l0.001-0.166c0 0.015 0 0.032 0 0.049 0 230.348-186.734 417.082-417.082 417.082s-417.082-186.734-417.082-417.082c0-230.348 186.734-417.082 417.082-417.082 111.858 0 213.431 44.034 288.33 115.713l-0.154-0.146c2.644 2.598 4.282 6.211 4.282 10.207s-1.638 7.609-4.28 10.205l-0.002 0.002c-2.629 2.622-6.257 4.244-10.264 4.244s-7.635-1.622-10.264-4.244v0c-70.098-66.704-165.158-107.741-269.803-107.741-110.864 0-210.97 46.059-282.227 120.085l-0.119 0.125c-67.11 69.255-108.476 163.797-108.476 268.001 0 110.405 46.436 209.965 120.843 280.214l0.187 0.175c70.101 66.697 165.16 107.729 269.803 107.729 110.862 0 210.967-46.054 282.229-120.074l0.119-0.124c67.074-69.314 108.411-163.888 108.411-268.117 0-90.837-31.398-174.342-83.932-240.252l0.601 0.78c-1.724-2.48-2.754-5.556-2.754-8.871 0-4.548 1.938-8.644 5.034-11.505l0.010-0.010c2.325-1.246 5.087-1.978 8.020-1.978 4.92 0 9.358 2.060 12.5 5.364l0.007 0.007zM745.041 620.964c7.781 0.033 14.155 6.014 14.812 13.629l0.004 0.056c-0.252 4.551-2.386 8.559-5.631 11.29l-0.024 0.020c-38.597 31.591-84.923 55.312-135.634 67.946l-2.403 0.507c-0.972 0.235-2.088 0.369-3.236 0.369-6.606 0-12.17-4.459-13.847-10.532l-0.024-0.101c-0.17-0.847-0.268-1.822-0.268-2.819 0-6.681 4.38-12.339 10.426-14.259l0.106-0.029c48.818-11.572 91.405-33.384 127.14-63.144l-0.497 0.402c2.287-2.073 5.337-3.342 8.683-3.342 0.138 0 0.276 0.002 0.413 0.006h-0.020zM552.235 693.856c0.173-0.007 0.376-0.012 0.58-0.012 7.885 0 14.276 6.392 14.276 14.276 0 7.681-6.066 13.945-13.668 14.264l-0.029 0.001h-15.89c-7.915-0.356-14.197-6.86-14.197-14.83s6.282-14.474 14.165-14.829l0.032-0.001c3.514 0.793 7.55 1.247 11.692 1.247 1.099 0 2.191-0.032 3.274-0.095l-0.15 0.007zM140.044 468.294c-11.835-78.202 1.961-161.774 45.082-236.462 0.662-1.147 1.33-2.289 2.002-3.426l-0.102 0.174c104.752-178.806 334.204-239.735 513.854-136.12l0.008 0.004c0.343 0.196 0.749 0.43 1.154 0.664 178.255 102.916 239.33 330.849 136.414 509.104-0.234 0.405-0.469 0.81-0.704 1.214l0.036-0.062c-104.686 178.856-334.184 239.793-513.806 136.088-87.051-50.259-146.471-129.998-172.929-219.326l0.066 0.218c-0.856-3.212-0.488-6.751 1.305-9.857 3.594-6.225 11.554-8.358 17.78-4.764 3.119 1.801 5.21 4.697 6.069 7.922v0c24.43 82.933 79.648 157.158 160.618 203.907 86.318 49.836 185.045 58.713 273.674 32.662l0.186-0.055c82.748-24.274 156.816-79.305 203.44-160.060 96.218-166.654 39.118-379.754-127.536-475.972-85.9-49.594-184.138-58.456-272.351-32.578l-0.181 0.054c-83.594 23.946-158.476 79.182-205.462 160.564-40.668 70.44-53.924 149.184-43.077 223.879l-0.117-0.921c0.217 2.699-0.368 5.548-1.855 8.123-2.051 3.553-5.412 5.879-9.12 6.719l-0.012 0.003c-2.38-0.061-4.869-0.726-7.16-2.048-3.802-2.195-6.31-5.77-7.256-9.727l-0.002-0.009z" />
<glyph unicode="&#xe909;" glyph-name="log-out" d="M576.348 25.242h-161.669c-0.192-0.007-0.417-0.010-0.643-0.010-11.164 0-20.214 9.050-20.214 20.214s9.050 20.214 20.214 20.214c0.226 0 0.452-0.004 0.676-0.011l-0.033 0.001h161.669c33.461 0.047 60.574 27.16 60.621 60.616v202.101c0.357 10.883 9.266 19.57 20.204 19.57s19.846-8.687 20.203-19.538l0.001-0.033v-202.076c-0.058-55.777-45.253-100.978-101.021-101.048h-0.007zM980.5 459.95h-404.152c-10.883 0.357-19.57 9.266-19.57 20.204s8.687 19.846 19.538 20.203l0.033 0.001h404.152c0.192 0.007 0.417 0.010 0.643 0.010 11.164 0 20.214-9.050 20.214-20.214s-9.050-20.214-20.214-20.214c-0.226 0-0.452 0.004-0.676 0.011l0.033-0.001zM354.058-96c-0.026 0-0.057 0-0.088 0-9.231 0-18.063 1.705-26.199 4.818l0.503-0.169-242.094 85.217c-32.662 12.343-55.467 43.35-55.467 79.685 0 0.39 0.003 0.779 0.008 1.168l-0.001-0.059v768c-0.017 0.632-0.027 1.377-0.027 2.123 0 45.138 35.923 81.886 80.739 83.214l0.122 0.003c0.078 0 0.17 0 0.262 0 9.188 0 17.975-1.721 26.055-4.858l-0.491 0.168 242.053-85.156c32.659-12.316 55.468-43.308 55.468-79.628 0-0.417-0.003-0.833-0.009-1.249l0.001 0.063v-768c0.017-0.632 0.027-1.377 0.027-2.123 0-45.138-35.923-81.886-80.739-83.214l-0.122-0.003zM111.555 885.34c-22.475-0.665-40.441-19.044-40.441-41.619 0-0.373 0.005-0.745 0.015-1.116l-0.001 0.055v-768c-0.002-0.14-0.003-0.306-0.003-0.472 0-18.203 11.439-33.734 27.522-39.797l0.293-0.097 242.504-85.238c3.687-1.214 7.931-1.915 12.339-1.915 22.486 0 40.714 18.228 40.714 40.714 0 0.551-0.011 1.099-0.033 1.645l0.002-0.078v767.918c0.002 0.154 0.003 0.335 0.003 0.517 0 18.192-11.476 33.705-27.584 39.692l-0.293 0.095-242.422 85.299c-3.742 1.48-8.076 2.343-12.611 2.355h-0.005zM657.162 604.662c-11.164 0-20.214 9.050-20.214 20.214v0 202.076c-0.047 33.461-27.16 60.574-60.616 60.621h-464.777c-11.164 0-20.214 9.050-20.214 20.214s9.050 20.214 20.214 20.214h464.773c55.784-0.058 100.99-45.264 101.048-101.043v-202.061c0-0.006 0-0.013 0-0.020 0-11.164-9.050-20.214-20.214-20.214v0zM818.831 300.165c-0.016 0-0.034 0-0.053 0-11.152 0-20.193 9.041-20.193 20.193 0 5.574 2.259 10.621 5.91 14.275l147.456 147.456-147.456 147.456c-3.669 3.669-5.938 8.737-5.938 14.336 0 11.197 9.077 20.274 20.274 20.274 5.599 0 10.667-2.269 14.336-5.938l161.669-161.669c3.684-3.662 5.963-8.733 5.963-14.336s-2.28-10.674-5.962-14.335l-161.67-161.67c-3.654-3.709-8.723-6.014-14.331-6.042h-0.005z" />
<glyph unicode="&#xe90a;" glyph-name="next" d="M778.935 452.549l-460.488 460.335c-20.206 20.155-52.943 20.155-73.2 0-20.206-20.155-20.206-52.892 0-73.047l423.963-423.81-423.912-423.81c-20.206-20.155-20.206-52.892 0-73.098 20.206-20.155 52.994-20.155 73.2 0l460.488 460.335c19.9 19.947 19.9 53.198-0.051 73.093z" />
<glyph unicode="&#xe90b;" glyph-name="pantone" d="M299.662 724.252h-109.881c-9.426 0-17.067-7.641-17.067-17.067s7.641-17.067 17.067-17.067v0h109.881c9.426 0 17.067 7.641 17.067 17.067s-7.641 17.067-17.067 17.067v0zM299.662 560.811h-109.881c-9.426 0-17.067-7.641-17.067-17.067s7.641-17.067 17.067-17.067h109.881c9.426 0 17.067 7.641 17.067 17.067s-7.641 17.067-17.067 17.067v0zM299.662 396.828h-109.881c-9.426 0-17.067-7.641-17.067-17.067s7.641-17.067 17.067-17.067h109.881c9.426 0 17.067 7.641 17.067 17.067s-7.641 17.067-17.067 17.067v0zM299.662 231.879h-109.881c-9.426 0-17.067-7.641-17.067-17.067s7.641-17.067 17.067-17.067h109.881c9.426 0 17.067 7.641 17.067 17.067s-7.641 17.067-17.067 17.067v0zM560.27 661.362l-99.954 45.796c-2.087 0.978-4.532 1.549-7.111 1.549-9.441 0-17.094-7.653-17.094-17.094 0-6.862 4.044-12.78 9.878-15.501l0.105-0.044 99.954-45.796c2.087-0.978 4.532-1.549 7.111-1.549 9.441 0 17.094 7.653 17.094 17.094 0 6.862-4.044 12.78-9.878 15.501l-0.105 0.044zM900.295 614.77l-55.865 72.476c-16.493 22.995-41.628 38.891-70.56 42.945l-0.551 0.063c-1.047 0.041-2.276 0.065-3.51 0.065-27.854 0-52.923-11.922-70.382-30.942l-0.063-0.070-38.798-37.717 14.876 35.669c7.664 14.757 12.159 32.221 12.159 50.734 0 22.824-6.831 44.052-18.561 61.752l0.258-0.415c-11.385 16.002-26.265 28.796-43.579 37.438l-0.68 0.307-77.568 40.391c-44.942 22.756-104.249 19.911-135.68-56.604l-21.703-52.252v36.181c0 83.399-52.793 113.209-102.4 113.209h-85.333c-49.55 0-102.4-29.611-102.4-113.209v-797.582c0-83.399 52.793-113.209 102.4-113.209h85.333c1.892-0.137 4.098-0.216 6.323-0.216 43.352 0 79.756 29.749 89.91 69.947l0.137 0.641 505.657 481.906c21.406 18.785 35.701 45.221 38.591 74.995l0.037 0.468c0.041 1.191 0.064 2.592 0.064 3.997 0 30.075-10.608 57.672-28.286 79.254l0.176-0.221zM355.868 17.209c0-28.103-8.875-75.463-68.267-75.463h-85.333c-25.6 0-68.267 9.813-68.267 75.463v797.582c0 65.422 42.667 75.463 68.267 75.463h85.333c25.6 0 68.267-9.813 68.267-75.463zM437.39 361.956l-47.332 23.41v137.728l94.35-47.559c2.109-1.052 4.593-1.668 7.222-1.668 7.135 0 13.21 4.537 15.498 10.883l0.036 0.115c1.010 2.292 1.598 4.965 1.598 7.775 0 7.369-4.044 13.794-10.033 17.176l-0.098 0.051-99.954 50.375c-1.919 0.907-4.168 1.436-6.541 1.436-0.702 0-1.394-0.046-2.072-0.136l0.080 0.009v127.004l52.793 126.976c24.405 59.648 67.072 48.896 90.311 37.746l78.080-39.424c12.708-6.244 23.226-15.205 31.121-26.179l0.168-0.246c6.943-10.954 11.064-24.293 11.064-38.595 0-12.753-3.277-24.741-9.035-35.167l0.19 0.375-168.96-407.58-85.333-207.644v245.39l32.626-16.612c2.109-1.052 4.593-1.668 7.222-1.668 7.135 0 13.21 4.537 15.498 10.883l0.036 0.115c1.012 2.296 1.6 4.972 1.6 7.786 0 7.375-4.044 13.805-10.035 17.194l-0.098 0.051zM867.499 484.978l-462.421-440.604 91.022 219.819 23.58-29.81c2.921-4.261 7.764-7.021 13.25-7.021 4.16 0 7.95 1.586 10.798 4.187l-0.012-0.011c3.953 3.701 6.417 8.951 6.417 14.777 0 4.413-1.413 8.496-3.812 11.821l0.041-0.060c-0.37 0.512-0.768 0.996-1.195 1.479l-34.133 41.33 52.622 126.805 67.328-86.244c3.003-4.092 7.795-6.719 13.201-6.719 4.439 0 8.464 1.771 11.407 4.646l-0.003-0.003c3.762 3.745 6.090 8.929 6.090 14.655 0 4.723-1.584 9.077-4.249 12.559l0.036-0.050-72.107 92.132c-1.792 2.214-4.086 3.951-6.714 5.050l-0.113 0.042 48.1 116.309 95.346 90.766c11.986 13.447 29.357 21.875 48.695 21.875 0.121 0 0.241 0 0.361-0.001h-0.019c19.647-3.262 36.262-14.205 46.951-29.577l0.153-0.233 56.036-71.879c12.397-14.955 19.918-34.342 19.918-55.485 0-0.394-0.003-0.787-0.008-1.179l0.001 0.059c-2.497-19.908-12.241-37.167-26.462-49.349l-0.105-0.088zM769.593 478.037l-71.765 83.228c-3.148 3.614-7.759 5.886-12.9 5.886-9.432 0-17.079-7.646-17.079-17.079 0-4.291 1.583-8.213 4.197-11.213l-0.017 0.020 71.765-83.228c3.148-3.614 7.759-5.886 12.9-5.886 9.432 0 17.079 7.646 17.079 17.079 0 4.291-1.583 8.213-4.197 11.213l0.017-0.020zM244.821 97.109c-32.848 0-59.477-26.629-59.477-59.477s26.629-59.477 59.477-59.477c32.848 0 59.477 26.629 59.477 59.477v0c0 32.848-26.629 59.477-59.477 59.477v0zM244.821 12.345v-0.683c0.192-13.63 11.286-24.604 24.943-24.604 13.777 0 24.946 11.169 24.946 24.946s-11.169 24.946-24.946 24.946c-13.657 0-24.751-10.975-24.943-24.586v-0.018z" />
<glyph unicode="&#xe90c;" glyph-name="phone" d="M735.946-96c-33.055 0-65.829 5.844-97.878 17.487-141.19 51.29-272.245 134.826-379 241.58s-190.292 237.81-241.58 379c-16.481 45.374-21.345 92.212-14.451 139.218 6.458 44.030 23.513 86.774 49.324 123.613 25.925 37 60.488 67.775 99.95 88.996 42.082 22.629 88.014 34.105 136.524 34.105 15.087 0 28.127-10.542 31.289-25.293l50.226-234.388c2.274-10.614-0.988-21.657-8.662-29.333l-85.822-85.82c80.961-160.965 212.331-292.336 373.297-373.297l85.82 85.822c7.676 7.674 18.721 10.932 29.333 8.662l234.388-50.226c14.753-3.162 25.293-16.201 25.293-31.289 0-48.51-11.476-94.444-34.107-136.526-21.221-39.462-51.996-74.025-88.996-99.95-36.836-25.811-79.581-42.866-123.613-49.324-13.797-2.026-27.593-3.036-41.334-3.038zM263.267 862.603c-63.987-7.064-120.781-40.602-158.495-94.43-42.41-60.528-52.3-134.974-27.133-204.256 98.604-271.441 310.837-483.674 582.278-582.278 69.279-25.167 143.726-15.279 204.256 27.133 53.828 37.714 87.366 94.508 94.43 158.495l-190.674 40.858-89.628-89.628c-9.538-9.538-24.029-12.072-36.233-6.336-190.372 89.436-344.47 243.534-433.906 433.906-5.734 12.205-3.202 26.697 6.336 36.233l89.628 89.628z" />
<glyph unicode="&#xe90d;" glyph-name="placeholder" d="M512 928c-211.776 0-384-172.224-384-384 0-266.176 346.624-615.872 361.344-630.656 6.272-6.208 14.464-9.344 22.656-9.344s16.384 3.136 22.656 9.344c14.72 14.784 361.344 364.48 361.344 630.656 0 211.776-172.224 384-384 384zM512-17.728c-76.416 81.792-320 358.4-320 561.728 0 176.448 143.552 320 320 320s320-143.552 320-320c0-203.136-243.584-479.936-320-561.728zM512 736c-105.856 0-192-86.144-192-192s86.144-192 192-192c105.856 0 192 86.144 192 192s-86.144 192-192 192zM512 416c-70.592 0-128 57.408-128 128s57.408 128 128 128 128-57.408 128-128-57.408-128-128-128z" />
<glyph unicode="&#xe90e;" glyph-name="responsive" d="M973.312 412.796v45.202c0.002 0.543 0.004 1.186 0.004 1.829 0 128.856-51.814 245.61-135.744 330.564l0.046-0.047c-83.31 84.981-199.299 137.659-327.592 137.659s-244.283-52.678-327.519-137.584l-0.074-0.075c-83.84-84.899-135.625-201.624-135.625-330.444 0-0.669 0.001-1.338 0.004-2.006v0.104-45.217c-23.977-16.482-39.497-43.76-39.497-74.663 0-0.042 0-0.083 0-0.125v0.006-119.954c-0.001-0.157-0.002-0.344-0.002-0.53 0-49.145 39.625-89.035 88.669-89.465h34.711c9.359-26.402 29.975-46.75 55.922-55.549l0.632-0.186c11.922-61.743 65.329-107.808 129.576-108.251h50.473c12.726-35.266 45.905-60.021 84.867-60.021 49.711 0 90.010 40.299 90.010 90.010s-40.299 90.010-90.010 90.010c-38.962 0-72.141-24.755-84.669-59.394l-0.198-0.627h-50.469c-32.185 0.179-59.432 21.118-69.045 50.098l-0.148 0.517c32.803 13.964 55.384 45.926 55.384 83.161 0 0.078 0 0.156 0 0.234v-0.012 239.967c0.007 0.402 0.010 0.876 0.010 1.352 0 48.903-39.644 88.547-88.547 88.547-38.65 0-71.516-24.763-83.599-59.289l-0.189-0.621h-24.869v30.003c-0.005 0.734-0.007 1.603-0.007 2.471 0 223.913 180.565 405.652 404.029 407.552l0.18 0.001c223.619-1.934 404.151-183.66 404.151-407.552 0-0.869-0.003-1.738-0.008-2.605l0.001 0.133v-30.003h-24.752c-12.219 35.241-45.132 60.090-83.85 60.090-48.903 0-88.547-39.644-88.547-88.547 0-0.539 0.005-1.076 0.014-1.613l-0.001 0.081v-240.011c-0.008-0.456-0.013-0.993-0.013-1.532 0-48.903 39.644-88.547 88.547-88.547 38.717 0 71.63 24.849 83.662 59.469l0.188 0.622h34.655c49.084 0.43 88.709 40.32 88.709 89.465 0 0.186-0.001 0.372-0.002 0.558v-0.029 119.954c0 0.037 0 0.081 0 0.126 0 30.905-15.52 58.186-39.192 74.472l-0.305 0.198zM450.882 23.954c0.126 0.002 0.275 0.003 0.424 0.003 16.57 0 30.003-13.433 30.003-30.003s-13.433-30.003-30.003-30.003c-16.57 0-30.003 13.433-30.003 30.003 0 0.014 0 0.029 0 0.043v-0.002c0 0.039 0 0.086 0 0.133 0 16.386 13.213 29.686 29.566 29.827h0.013zM66.458 218.002v119.954c0 0.052-0.001 0.115-0.001 0.177 0 16.381 13.205 29.678 29.551 29.826h29.593v-179.931h-29.579c-16.36 0.149-29.565 13.446-29.565 29.826 0 0.052 0 0.104 0 0.155v-0.008zM184.744 397.934c-0.005 0.196-0.007 0.426-0.007 0.658 0 16.336 13.243 29.579 29.579 29.579s29.579-13.243 29.579-29.579c0-0.231-0.003-0.462-0.008-0.692l0.001 0.034v-239.938c0.005-0.196 0.007-0.426 0.007-0.658 0-16.336-13.243-29.579-29.579-29.579s-29.579 13.243-29.579 29.579c0 0.231 0.003 0.462 0.008 0.692l-0.001-0.034zM835.291 157.996c0.005-0.196 0.007-0.426 0.007-0.658 0-16.336-13.243-29.579-29.579-29.579s-29.579 13.243-29.579 29.579c0 0.231 0.003 0.462 0.008 0.692l-0.001-0.034v240.011c-0.005 0.196-0.007 0.426-0.007 0.658 0 16.336 13.243 29.579 29.579 29.579s29.579-13.243 29.579-29.579c0-0.231-0.003-0.462-0.008-0.692l0.001 0.034zM953.578 217.973c0-0.052 0.001-0.115 0.001-0.177 0-16.381-13.205-29.678-29.551-29.826h-29.564v179.931h29.564c16.36-0.149 29.565-13.446 29.565-29.826 0-0.062 0-0.124-0.001-0.186v0.010z" />
<glyph unicode="&#xe90f;" glyph-name="search" d="M1017.75-29.418l-297.465 297.465c56.42 69.654 90.382 158.206 90.382 254.618 0 223.5-181.834 405.335-405.335 405.335s-405.333-181.834-405.333-405.335 181.834-405.335 405.335-405.335c96.412 0 184.964 33.964 254.618 90.382l297.465-297.465c8.334-8.33 21.838-8.33 30.172 0l30.162 30.164c8.33 8.332 8.33 21.84-0.002 30.17zM405.335 202.665c-176.458 0-320.001 143.542-320.001 320.001s143.542 320.001 320.001 320.001 320.001-143.542 320.001-320.001-143.542-320.001-320.001-320.001z" />
<glyph unicode="&#xe910;" glyph-name="shield" d="M946.975 650.165l-0.031 0.797c-0.445 9.836-0.742 20.242-0.922 31.82-0.836 56.461-45.719 103.164-102.187 106.32-117.734 6.57-208.812 44.961-286.632 120.812l-0.664 0.633c-25.383 23.273-63.672 23.273-89.062 0l-0.664-0.633c-77.82-75.851-168.898-114.242-286.632-120.82-56.461-3.148-101.351-49.851-102.187-106.32-0.172-11.5-0.477-21.906-0.922-31.812l-0.047-1.852c-2.289-120.054-5.133-269.468 44.851-405.085 27.484-74.578 69.109-139.406 123.711-192.695 62.187-60.687 143.64-108.867 242.093-143.195 3.203-1.117 6.531-2.023 9.922-2.703 4.781-0.953 9.594-1.43 14.406-1.43s9.633 0.477 14.406 1.43c3.391 0.68 6.742 1.594 9.961 2.719 98.336 34.391 179.703 82.594 241.835 143.273 54.578 53.305 96.203 118.148 123.711 192.742 50.172 136.023 47.336 285.718 45.055 405.999zM845.546 264.955c-52.719-142.937-160.335-241.101-328.999-300.085-0.602-0.203-1.242-0.383-1.906-0.516-1.742-0.344-3.516-0.344-5.281 0.008-0.656 0.133-1.297 0.305-1.891 0.508-168.843 58.875-276.53 156.984-329.21 299.929-46.070 125.007-43.461 262.163-41.156 383.163l0.016 0.672c0.469 10.398 0.781 21.289 0.953 33.258 0.375 25.070 20.344 45.812 45.461 47.211 66.625 3.719 125.156 16.594 178.937 39.359 53.711 22.734 101.414 54.781 145.82 97.968 2.258 1.906 5.187 1.914 7.437 0 44.414-43.187 92.117-75.234 145.82-97.968 53.781-22.766 112.312-35.641 178.945-39.359 25.117-1.398 45.086-22.141 45.453-47.219 0.18-12.031 0.492-22.922 0.961-33.25 2.297-121.14 4.844-258.406-41.359-383.679zM511.992 671.18c-140.718 0-255.195-114.484-255.195-255.195 0-140.718 114.476-255.202 255.195-255.202 140.711 0 255.195 114.484 255.195 255.202 0 140.711-114.484 255.195-255.195 255.195zM511.992 220.877c-107.586 0-195.109 87.523-195.109 195.109s87.523 195.109 195.109 195.109c107.578 0 195.101-87.523 195.101-195.109s-87.523-195.109-195.101-195.109zM585.336 495.212l-118.531-118.531-32.172 32.172c-11.734 11.734-30.758 11.734-42.492 0-11.727-11.734-11.727-30.758 0-42.484l53.422-53.422c5.867-5.867 13.555-8.797 21.242-8.797s15.375 2.93 21.242 8.797l139.781 139.781c11.727 11.734 11.727 30.758 0 42.484-11.734 11.742-30.758 11.742-42.492 0z" />
<glyph unicode="&#xe911;" glyph-name="surface" d="M281.572 800.939h462.165c8.75 0 15.844 7.093 15.844 15.844s-7.093 15.844-15.844 15.844v0h-462.165c-8.75 0-15.844-7.093-15.844-15.844s7.093-15.844 15.844-15.844v0zM99.556 879.332v-926.976c0.463-26.806 22.301-48.358 49.174-48.358 0.172 0 0.345 0.001 0.517 0.003h726.815c0.171-0.002 0.372-0.003 0.574-0.003 26.856 0 48.675 21.563 49.089 48.32v927.015c-0.399 26.793-22.212 48.359-49.062 48.359-0.212 0-0.423-0.001-0.635-0.004h-241.319c1.223-0.398-243.428 0.825-244.082 0h-241.408c-0.179 0.002-0.391 0.004-0.602 0.004-26.85 0-48.663-21.566-49.061-48.322v-0.037zM893.924-47.644c-0.128-9.689-8.012-17.495-17.719-17.495-0.081 0-0.161 0.001-0.241 0.002h-726.744c-0.068-0.001-0.148-0.001-0.229-0.001-9.707 0-17.592 7.806-17.719 17.483v777.598h762.823zM876.060 896.853c0.060 0.001 0.13 0.001 0.201 0.001 9.744 0 17.661-7.827 17.804-17.538v-118.514h-762.795v118.528c0.112 9.717 8.015 17.551 17.748 17.551 0.070 0 0.141 0 0.211-0.001h-0.011zM419.669 559.332h374.642c8.75 0 15.844 7.093 15.844 15.844s-7.093 15.844-15.844 15.844h-374.642c-8.75 0-15.844-7.093-15.844-15.844s7.093-15.844 15.844-15.844v0zM419.669 398.478h374.642c8.758 0 15.858 7.1 15.858 15.858s-7.1 15.858-15.858 15.858h-374.642c-8.758 0-15.858-7.1-15.858-15.858s7.1-15.858 15.858-15.858v0zM419.669 237.596h374.642c8.758 0 15.858 7.1 15.858 15.858s-7.1 15.858-15.858 15.858h-374.642c-8.758 0-15.858-7.1-15.858-15.858s7.1-15.858 15.858-15.858v0zM419.669 81.579h374.642c8.742 0 15.829 7.087 15.829 15.829s-7.087 15.829-15.829 15.829v0h-374.642c-8.742 0-15.829-7.087-15.829-15.829s7.087-15.829 15.829-15.829v0zM261.632 549.262c2.445-3.456 6.165-5.869 10.462-6.559l0.091-0.012h2.361c3.688 0.017 7.076 1.289 9.761 3.41l-0.033-0.025 100.949 78.876c5.125 2.694 8.56 7.981 8.56 14.070 0 8.75-7.093 15.844-15.844 15.844-3.168 0-6.118-0.93-8.593-2.531l0.062 0.038c-1.375-0.797-2.554-1.742-3.576-2.836l-0.008-0.009-87.808-68.693-15.332 21.874c-2.913 3.983-7.571 6.542-12.825 6.542-8.75 0-15.844-7.093-15.844-15.844 0-3.3 1.009-6.364 2.735-8.901l-0.035 0.055zM261.632 391.196c2.443-3.464 6.163-5.887 10.461-6.587l0.092-0.012h2.361c3.689 0.046 7.071 1.324 9.763 3.44l-0.035-0.026 100.921 78.82c3.952 2.922 6.486 7.565 6.486 12.8 0 8.766-7.107 15.873-15.873 15.873-3.531 0-6.793-1.153-9.43-3.103l0.043 0.030-0.74-0.569-87.694-68.779-15.388 21.845c-2.669 5.253-8.032 8.79-14.222 8.79-8.782 0-15.901-7.119-15.901-15.901 0-2.592 0.62-5.039 1.72-7.201l-0.042 0.090c0.664-1.314 1.451-2.446 2.371-3.453l-0.010 0.012zM261.632 232.59c2.454-3.44 6.172-5.842 10.462-6.53l0.091-0.012h2.361c3.688 0.017 7.076 1.289 9.761 3.41l-0.033-0.025 100.978 78.905c3.952 2.922 6.486 7.565 6.486 12.8 0 8.766-7.107 15.873-15.873 15.873-3.531 0-6.793-1.153-9.43-3.103l0.043 0.030-0.74-0.569-87.808-68.58-15.303 21.874c-2.87 4.401-7.769 7.27-13.339 7.27-8.766 0-15.872-7.106-15.872-15.872 0-3.613 1.208-6.945 3.241-9.613l-0.028 0.039zM261.632 72.107c2.454-3.446 6.17-5.856 10.46-6.558l0.092-0.012h2.361c3.681 0.081 7.052 1.34 9.768 3.415l-0.040-0.030 100.949 78.962c4.664 2.814 7.735 7.854 7.735 13.611 0 8.75-7.093 15.844-15.844 15.844-3.275 0-6.318-0.994-8.844-2.696l0.056 0.036c-0.956-0.595-1.785-1.253-2.533-1.992l0.001 0.001-87.808-68.665-15.332 21.845c-2.886 4.246-7.694 6.998-13.144 6.998-8.75 0-15.844-7.093-15.844-15.844 0-3.495 1.132-6.726 3.049-9.347l-0.031 0.045z" />
<glyph unicode="&#xe912;" glyph-name="up" d="M548.521 682.161c-19.899 19.899-53.144 19.899-73.094 0l-460.312-459.134c-20.154-20.154-20.154-52.838 0-72.941 20.154-20.154 52.889-20.154 73.043 0l423.84 422.662 423.789-422.713c20.205-20.154 52.889-20.154 73.094 0 20.154 20.154 20.154 52.838 0 72.941l-460.359 459.185z" />
<glyph unicode="&#xe913;" glyph-name="verified" d="M874.038 778.040c-96.704 96.702-225.278 149.96-362.038 149.96-136.762 0-265.338-53.258-362.040-149.96-96.704-96.704-149.96-225.28-149.96-362.040s53.256-265.334 149.96-362.038c96.704-96.704 225.278-149.962 362.040-149.962 136.76 0 265.334 53.258 362.038 149.962s149.962 225.278 149.962 362.038-53.258 265.334-149.962 362.040zM512-36c-249.234 0-452 202.766-452 452s202.766 452 452 452 452-202.766 452-452-202.766-452-452-452zM756.61 580.282c-11.714 11.712-30.71 11.712-42.424-0.002l-264.918-264.918-139.454 139.454c-11.714 11.714-30.71 11.714-42.426 0s-11.716-30.71 0-42.426l160.666-160.666c5.858-5.858 13.536-8.786 21.212-8.786s15.356 2.93 21.212 8.786l286.132 286.132c11.716 11.714 11.716 30.71 0 42.426z" />
</font>
</defs>
</svg>
