<?xml version="1.0" encoding="UTF-8"?>
<!DOCTYPE svg PUBLIC "-//W3C//DTD SVG 1.1//EN" "http://www.w3.org/Graphics/SVG/1.1/DTD/svg11.dtd">
<svg version="1.1" xmlns="http://www.w3.org/2000/svg" xmlns:xlink="http://www.w3.org/1999/xlink" x="0" y="0" width="375" height="58" viewBox="0, 0, 375, 58">
  <g id="Layer_1">
    <path d="M69.594,39.144 C69.917,39.037 80.092,35.687 81.332,35.44 C82.474,35.212 82.286,36.475 81.889,37.642 C81.574,38.559 81.144,39.4 81.144,39.4 L81.155,39.397 L81.127,39.454 L111.889,28.801 L111.796,28.787 L111.909,28.748 L88.682,24.967 C88.787,24.793 89.13,24.196 89.352,23.535 C89.678,22.599 89.777,21.51 88.592,21.341 C85.971,20.953 72.924,18.869 72.924,18.869 L72.91,18.922 L72.905,18.922 L64.427,53.139 C57.563,50.21 53.588,44.528 53.602,36.292 C51.977,39.901 49.673,43.274 45.864,46.525 C39.113,52.329 30.145,55.462 22.348,55.462 C7.009,55.462 -3.081,45.994 0.854,29.856 C4.857,13.451 19.335,3.583 35.138,3.583 C43.873,3.583 54.818,7.915 56.652,16.52 L38.053,22.787 C37.271,20.253 34.998,18.919 32.061,18.919 C25.527,18.919 20.559,24.523 19.079,30.587 C17.729,36.123 19.926,41.324 25.859,41.324 C28.728,41.324 32.722,39.991 34.337,36.922 L26.067,36.922 L28.964,25.054 L55.948,25.054 C61.344,11.89 74.885,3.583 88.618,3.583 C101.72,3.583 110.958,11.15 110.879,23.285 L115.492,4.385 L133.762,4.385 L125.431,38.528 L135.211,38.528 L131.273,54.663 L103.222,54.663 L107.746,36.132 C101.895,48.343 89.116,55.465 75.96,55.465 C72.443,55.465 68.834,54.818 65.977,53.842 L69.594,39.147 z" fill="#03AA4D"/>
    <path d="M176.128,18.787 L179.644,4.382 L145.968,4.382 L133.703,54.66 L152.105,54.66 L156.401,37.057 L169.804,37.057 L172.991,23.988 L159.588,23.988 L160.854,18.784 z" fill="#03AA4D"/>
    <path d="M181.444,4.382 L212.184,4.382 L212.184,11.699 L200.688,11.699 L200.688,54.66 L192.862,54.66 L192.862,11.699 L181.45,11.701 L181.45,4.385 M326.355,5.606 L306.243,56.025 L305.404,58.14 L304.58,56.016 L291.714,22.618 L278.847,56.016 L278.032,58.14 L277.188,56.025 L257.084,5.606 L256.594,4.382 L265.073,4.382 L265.292,4.95 L278.006,37.53 L290.876,3.929 L291.714,1.749 L292.544,3.929 L305.424,37.53 L318.138,4.95 L318.363,4.382 L326.847,4.382 z" fill="#BE1E24"/>
    <path d="M373.809,5.277 L373.809,57.991 L337.452,19.85 L337.452,54.658 L329.626,54.658 L329.626,0.731 L331.159,2.346 L365.983,38.871 L365.983,4.385 L373.806,4.385 z" fill="#BE1E24"/>
    <path d="M234.474,10.801 C224.288,10.801 216.032,19.184 216.032,29.521 C216.032,39.862 224.288,48.241 234.474,48.241 C244.659,48.241 252.918,39.859 252.918,29.521 C252.918,19.184 244.659,10.801 234.474,10.801 M260.738,29.521 C260.738,43.974 248.98,55.693 234.474,55.693 C219.967,55.693 208.209,43.974 208.209,29.521 C208.209,15.068 219.967,3.353 234.474,3.353 C248.98,3.353 260.738,15.068 260.738,29.521" fill="#BE1E24"/>
  </g>
</svg>
